<svg xmlns="http://www.w3.org/2000/svg" width="1024" height="1024" viewBox="0 0 120 120"><defs><linearGradient id="g" x1="0" y1="0" x2="0" y2="1"><stop offset="0" stop-color="#f0c445"/><stop offset="1" stop-color="#c8960f"/></linearGradient><linearGradient id="bg" x1="0" y1="0" x2="0" y2="1"><stop offset="0" stop-color="#1c1c22"/><stop offset="1" stop-color="#0b0b0d"/></linearGradient><radialGradient id="gl" cx="0.5" cy="0.42" r="0.5"><stop offset="0" stop-color="#d4a017" stop-opacity="0.16"/><stop offset="1" stop-color="#d4a017" stop-opacity="0"/></radialGradient></defs><rect width="120" height="120" rx="27" fill="url(#bg)"/><rect width="120" height="120" rx="27" fill="url(#gl)"/><g transform="translate(-7.2 -14.5) scale(1.12)"><path d="M60 108 C60 92 56 82 60 70" fill="none" stroke="#b7860f" stroke-width="3" stroke-linecap="round"/><path d="M59 92 C67 90 73 84 75 76 C66 76 60 82 59 92 Z" fill="#b7860f"/><path d="M61 98 C53 96 47 90 45 82 C54 82 60 88 61 98 Z" fill="#b7860f"/><g transform="translate(60 34) scale(0.55)"><g fill="url(#g)"><path d="M0 9 C-7 3 -8 -9 0 -15 C8 -9 7 3 0 9 Z" transform="rotate(0)"/><path d="M0 9 C-7 3 -8 -9 0 -15 C8 -9 7 3 0 9 Z" transform="rotate(90)"/><path d="M0 9 C-7 3 -8 -9 0 -15 C8 -9 7 3 0 9 Z" transform="rotate(180)"/><path d="M0 9 C-7 3 -8 -9 0 -15 C8 -9 7 3 0 9 Z" transform="rotate(270)"/></g><circle cx="0" cy="0" r="4.5" fill="#f0c445"/></g><g transform="translate(49 46) scale(0.5)"><g fill="url(#g)"><path d="M0 9 C-7 3 -8 -9 0 -15 C8 -9 7 3 0 9 Z" transform="rotate(0)"/><path d="M0 9 C-7 3 -8 -9 0 -15 C8 -9 7 3 0 9 Z" transform="rotate(90)"/><path d="M0 9 C-7 3 -8 -9 0 -15 C8 -9 7 3 0 9 Z" transform="rotate(180)"/><path d="M0 9 C-7 3 -8 -9 0 -15 C8 -9 7 3 0 9 Z" transform="rotate(270)"/></g><circle cx="0" cy="0" r="4.5" fill="#f0c445"/></g><g transform="translate(71 46) scale(0.5)"><g fill="url(#g)"><path d="M0 9 C-7 3 -8 -9 0 -15 C8 -9 7 3 0 9 Z" transform="rotate(0)"/><path d="M0 9 C-7 3 -8 -9 0 -15 C8 -9 7 3 0 9 Z" transform="rotate(90)"/><path d="M0 9 C-7 3 -8 -9 0 -15 C8 -9 7 3 0 9 Z" transform="rotate(180)"/><path d="M0 9 C-7 3 -8 -9 0 -15 C8 -9 7 3 0 9 Z" transform="rotate(270)"/></g><circle cx="0" cy="0" r="4.5" fill="#f0c445"/></g><g transform="translate(60 54) scale(0.6)"><g fill="url(#g)"><path d="M0 9 C-7 3 -8 -9 0 -15 C8 -9 7 3 0 9 Z" transform="rotate(0)"/><path d="M0 9 C-7 3 -8 -9 0 -15 C8 -9 7 3 0 9 Z" transform="rotate(90)"/><path d="M0 9 C-7 3 -8 -9 0 -15 C8 -9 7 3 0 9 Z" transform="rotate(180)"/><path d="M0 9 C-7 3 -8 -9 0 -15 C8 -9 7 3 0 9 Z" transform="rotate(270)"/></g><circle cx="0" cy="0" r="4.5" fill="#f0c445"/></g></g></svg>
